<svg xmlns="http://www.w3.org/2000/svg" version="1.1" xmlns:xlink="http://www.w3.org/1999/xlink" xmlns:svgjs="http://svgjs.dev/svgjs" width="2000" height="1252" viewBox="0 0 2000 1252"><g transform="matrix(1,0,0,1,-1.2121212121212466,-2.019354838709546)"><svg viewBox="0 0 396 248" data-background-color="#000000" preserveAspectRatio="xMidYMid meet" height="1252" width="2000" xmlns="http://www.w3.org/2000/svg" xmlns:xlink="http://www.w3.org/1999/xlink"><g id="tight-bounds" transform="matrix(1,0,0,1,0.2400000000000091,0.4000000000000057)"><svg viewBox="0 0 395.52 247.2" height="247.2" width="395.52"><g><svg></svg></g><g><svg viewBox="0 0 395.52 247.2" height="247.2" width="395.52"><g transform="matrix(1,0,0,1,75.54432,60.624976)"><svg viewBox="0 0 244.43135999999998 125.950048" height="125.950048" width="244.43135999999998"><g><svg viewBox="0 0 244.43135999999998 125.950048" height="125.950048" width="244.43135999999998"><g><svg viewBox="0 0 244.43135999999998 125.950048" height="125.950048" width="244.43135999999998"><g><svg viewBox="0 0 244.43135999999998 125.950048" height="125.950048" width="244.43135999999998"><g id="textblocktransform"><svg viewBox="0 0 244.43135999999998 125.950048" height="125.950048" width="244.43135999999998" id="textblock"><g><svg viewBox="0 0 244.43135999999998 125.950048" height="125.950048" width="244.43135999999998"><g transform="matrix(1,0,0,1,0,0)"><svg width="244.43135999999998" viewBox="2.81 -35.64 70.31 36.230000000000004" height="125.950048" data-palette-color="#ffffff"><path d="M2.81-1.49L4.27-5.1Q5.27-4.71 6.38-4.37 7.5-4.03 8.65-3.78 9.81-3.54 10.99-3.39 12.16-3.25 13.28-3.25L13.28-3.25Q15.21-3.25 16.77-3.69 18.33-4.13 19.46-4.97 20.58-5.81 21.19-7.04 21.8-8.28 21.8-9.86L21.8-9.86Q21.8-11.45 21.23-12.46 20.65-13.48 19.57-14.16 18.48-14.84 16.89-15.32 15.31-15.8 13.28-16.31L13.28-16.31Q11.04-16.89 9.14-17.61 7.25-18.33 5.87-19.48 4.49-20.63 3.71-22.33 2.93-24.02 2.93-26.56L2.93-26.56Q2.93-28.64 3.76-30.32 4.59-32.01 6.1-33.19 7.62-34.38 9.74-35.01 11.87-35.64 14.43-35.64L14.43-35.64Q15.67-35.64 16.97-35.49 18.26-35.33 19.53-35.06 20.8-34.79 22.02-34.4 23.24-34.01 24.32-33.54L24.32-33.54 22.85-29.93Q21.97-30.27 21.06-30.62 20.14-30.96 19.12-31.23 18.09-31.49 16.93-31.65 15.77-31.81 14.43-31.81L14.43-31.81Q13.09-31.81 11.87-31.52 10.64-31.23 9.7-30.6 8.76-29.98 8.2-28.98 7.64-27.98 7.64-26.56L7.64-26.56Q7.64-24.98 8.22-23.96 8.79-22.95 9.88-22.27 10.96-21.58 12.55-21.11 14.14-20.63 16.16-20.12L16.16-20.12Q18.41-19.53 20.3-18.81 22.19-18.09 23.57-16.94 24.95-15.8 25.73-14.09 26.51-12.38 26.51-9.86L26.51-9.86Q26.51-7.2 25.52-5.24 24.54-3.27 22.77-1.98 21-0.68 18.57-0.05 16.14 0.59 13.28 0.59L13.28 0.59Q7.89 0.59 2.81-1.49L2.81-1.49ZM52.32-4.69L62.08-35.08 68.89-35.08 73.12 0 68.65 0 64.99-29.54 64.74-29.54 55.05 0 49.58 0 39.89-29.54 39.65-29.54 35.98 0 31.52 0 35.74-35.08 42.55-35.08 52.32-4.69Z" opacity="1" transform="matrix(1,0,0,1,0,0)" fill="#ffff" class="wordmark-text-0" data-fill-palette-color="primary" id="text-0"></path></svg></g></svg></g></svg></g></svg></g></svg></g></svg></g></svg></g><g><path d="M245.816 0c68.262 0 123.6 55.338 123.6 123.6 0 68.262-55.338 123.6-123.6 123.6-38.759 0-73.352-17.841-96.014-45.758h7.434c21.611 24.572 53.284 40.079 88.58 40.079 65.126 0 117.921-52.795 117.921-117.921 0-65.126-52.795-117.921-117.921-117.921-35.295 0-66.969 15.507-88.58 40.079h-7.434c22.662-27.917 57.254-45.758 96.014-45.758z" fill="#ffff" stroke="transparent" data-fill-palette-color="tertiary"></path></g></svg></g><defs></defs></svg><rect width="395.52" height="247.2" fill="none" stroke="none" visibility="hidden"></rect></g></svg></g></svg>